PathFileType	4	(X/Y/Z)	C:\Users\Basilio\Documents\Thesis Gigler\squatting_fais\c3dfiles\075\SLS_back_pre4\markers_experimental.trc
DataRate	CameraRate	NumFrames	NumMarkers	Units	OrigDataRate	OrigDataStartFrame	OrigNumFrames
200.000000	200.000000	4	61	mm	200.000000	0	1351
Frame#	Time	FHD			LBHD			C7			T10			CLAV			LSHO			LUUPA			LMUPA			LDUPA			LLEP			LMEP			LRAD			LUL			LRFIN			RSHO			RUPA1			RMUPA			RDUPA			RLEP			RMEP			RRAD			RUL			RUFIN			LASI			RASI			USACR			LSACR			RSACR			LTHI1			LTHI2			LTHI3			LTHI4			LLFC			LMFC			LTIB1			LTIB2			LTIB3			LTIB4			LLMAL			LMMAL			LHEE			LMT1			LMT2			LMT5			RTHI			RTHI2			RTHI3			RTHI4			RLFC			RMFC			RTIB1			RTIB2			RTIB3			RTIB4			RLMAL			RMMAL			RHEE			RMT1			RMT2			RMT5			RBHD			
		X1	Y1	Z1	X2	Y2	Z2	X3	Y3	Z3	X4	Y4	Z4	X5	Y5	Z5	X6	Y6	Z6	X7	Y7	Z7	X8	Y8	Z8	X9	Y9	Z9	X10	Y10	Z10	X11	Y11	Z11	X12	Y12	Z12	X13	Y13	Z13	X14	Y14	Z14	X15	Y15	Z15	X16	Y16	Z16	X17	Y17	Z17	X18	Y18	Z18	X19	Y19	Z19	X20	Y20	Z20	X21	Y21	Z21	X22	Y22	Z22	X23	Y23	Z23	X24	Y24	Z24	X25	Y25	Z25	X26	Y26	Z26	X27	Y27	Z27	X28	Y28	Z28	X29	Y29	Z29	X30	Y30	Z30	X31	Y31	Z31	X32	Y32	Z32	X33	Y33	Z33	X34	Y34	Z34	X35	Y35	Z35	X36	Y36	Z36	X37	Y37	Z37	X38	Y38	Z38	X39	Y39	Z39	X40	Y40	Z40	X41	Y41	Z41	X42	Y42	Z42	X43	Y43	Z43	X44	Y44	Z44	X45	Y45	Z45	X46	Y46	Z46	X47	Y47	Z47	X48	Y48	Z48	X49	Y49	Z49	X50	Y50	Z50	X51	Y51	Z51	X52	Y52	Z52	X53	Y53	Z53	X54	Y54	Z54	X55	Y55	Z55	X56	Y56	Z56	X57	Y57	Z57	X58	Y58	Z58	X59	Y59	Z59	X60	Y60	Z60	X61	Y61	Z61	

1	0	-252.9167785644532	1722.02490234375	-856.1125488281252	-367.3434143066407	1596.576171875	-957.5961914062502	-423.0335388183595	1481.962158203125	-894.4544677734377	-430.1056518554689	1155.436767578125	-893.6423950195315	-279.0982055664063	1423.179321289063	-882.7990722656252	-306.9594726562501	1451.3076171875	-1047.313720703125	-317.5802917480469	1257.976928710938	-1173.21630859375	-278.2088623046876	1234.36328125	-1154.87353515625	-300.9820251464844	1192.162719726563	-1192.53564453125	-272.2007141113282	1111.551879882813	-1189.921752929688	-346.2435607910157	1091.60986328125	-1134.682373046875	-179.5538940429688	1107.84521484375	-951.433776855469	-135.631103515625	1060.106567382813	-990.1035156250002	-109.8343963623047	1109.763793945313	-896.943298339844	-327.4989624023438	1443.726318359375	-722.2627563476564	-349.4687194824219	1243.439208984375	-609.1225585937501	-309.5305175781251	1217.472534179688	-622.2915039062501	-341.0466918945313	1174.757202148438	-592.4096069335939	-319.7452697753907	1105.854736328125	-588.0861816406251	-372.1097106933594	1067.710205078125	-647.0382690429689	-162.0850677490235	1118.017944335938	-811.0056152343752	-134.6520233154297	1071.048095703125	-756.2965698242189	-85.04176330566408	1111.546264648438	-855.962829589844	-259.2604064941407	986.6964111328127	-1015.950134277344	-256.5467529296876	998.1651000976565	-764.4935913085939	-417.4579467773439	1055.5654296875	-893.187194824219	-423.5615539550782	1023.749816894531	-919.3763427734377	-422.995574951172	1025.819580078125	-862.576110839844	-303.7861328125001	741.9972534179689	-1086.748413085938	-272.3418273925782	663.7031250000001	-1084.468383789063	-226.8541564941407	670.0645141601564	-1067.674194335938	-299.0334777832032	610.5641479492189	-1074.701782226563	-305.7382202148438	501.969451904297	-1065.0869140625	-265.2931213378907	487.2221069335939	-941.390075683594	-255.0021514892579	377.6916503906251	-1033.171875	-315.9436645507813	342.5118103027344	-1084.347412109375	-276.1791076660157	332.8691406250001	-1064.137939453125	-285.0195007324219	252.8499298095704	-1036.885009765625	-366.9857788085938	119.4074172973633	-1057.059692382813	-339.9470520019532	128.4410705566407	-976.6887207031252	-425.7787475585939	89.0701141357422	-1019.853393554688	-220.7709045410157	51.4212989807129	-985.5574340820315	-215.5314941406251	54.75337982177736	-1034.144287109375	-253.1380920410157	41.70912551879884	-1088.2490234375	-315.9050598144532	794.177673339844	-696.2611083984376	-277.5068054199219	741.4262084960939	-700.2493286132814	-246.8056640625001	747.7194824218751	-711.8773803710939	-304.7781982421876	660.1581420898439	-708.3868408203126	-320.3600463867188	506.2365112304689	-737.5814208984376	-285.3543701171876	498.0315856933595	-862.7886962890627	-281.4206542968751	356.3266296386719	-802.9228515625002	-335.8902587890626	282.8681945800782	-742.5285644531251	-301.7169189453126	274.4963989257813	-775.715026855469	-315.5688476562501	230.984848022461	-811.3286743164065	-391.7501220703126	117.3957061767578	-772.632751464844	-363.9858093261719	138.9376983642578	-853.234313964844	-450.0217285156251	98.51606750488284	-825.9470825195315	-245.4642791748047	57.63904571533205	-837.349792480469	-245.7942962646485	55.9700050354004	-795.0483398437502	-283.1789855957032	36.51050186157227	-742.2735595703126	nan	nan	nan	
2	0.005	-252.8210601806641	1722.002319335938	-856.1300048828127	-367.2094421386719	1596.577392578125	-957.6365966796877	-422.9866027832032	1481.963134765625	-894.4605712890627	-430.0335083007814	1155.4501953125	-893.6535644531252	-279.0713806152344	1423.148193359375	-882.7906494140627	-306.9390258789063	1451.267211914063	-1047.331787109375	-317.5359191894532	1257.963745117188	-1173.28076171875	-278.2360229492188	1234.2978515625	-1154.936279296875	-300.9607238769532	1192.165649414063	-1192.580932617188	-272.2539062500001	1111.536254882813	-1189.996215820313	-346.2829284667969	1091.63134765625	-1134.7529296875	-179.6125183105469	1107.7421875	-951.4707641601565	-135.65869140625	1060.037109375	-990.1392822265627	-109.4260406494141	1109.673828125	-896.5237426757815	-327.4481811523438	1443.709594726563	-722.2966918945314	-349.4640197753907	1243.43603515625	-609.1741943359376	-309.5523986816407	1217.463989257813	-622.3545532226564	-341.0987854003907	1174.752197265625	-592.4502563476564	-319.7822570800782	1105.864501953125	-588.1705932617189	-372.1559753417969	1067.699829101563	-647.1651000976564	-162.1457977294922	1117.934204101563	-810.9948730468752	-134.7306213378907	1070.973266601563	-756.3491210937501	-85.10201263427736	1111.409545898438	-855.9688110351565	-259.2608337402344	986.6307373046877	-1015.933166503906	-256.4661560058594	998.156677246094	-764.4390258789064	-417.456024169922	1055.546142578125	-893.1850585937502	-423.5140380859376	1023.741882324219	-919.3621826171877	-422.9568176269532	1025.837890625	-862.549743652344	-303.7915649414063	741.9293212890626	-1086.756591796875	-273.2760009765626	664.0356445312501	-1084.853149414063	-226.8182220458985	670.0283203125001	-1067.688110351563	-299.0588684082032	610.6015625000001	-1074.672119140625	-305.6999511718751	501.9429321289064	-1065.081420898438	-265.3033752441407	487.2374877929689	-941.3667602539065	-255.6463928222657	377.8787536621094	-1033.659912109375	-316.0179138183594	342.5222778320313	-1084.350708007813	-276.1737060546876	332.8587036132813	-1064.136352539063	-284.9772338867188	252.8451690673829	-1036.847778320313	-367.0581054687501	119.4110641479492	-1057.0390625	-339.9464111328126	128.4202575683594	-976.692565917969	-425.7670898437501	89.10205078125001	-1019.827270507813	-220.7637329101563	51.4259605407715	-985.5147094726565	-215.5068359375001	54.74428939819337	-1034.200073242188	-253.1822204589844	41.65895462036134	-1088.241821289063	-315.9190063476563	794.1643676757815	-696.2113037109376	-277.4719543457032	741.4041137695314	-700.2294921875001	-246.7829589843751	747.7282714843751	-711.8265991210939	-304.7904357910157	660.1636352539064	-708.3712158203126	-320.3479614257813	506.2410583496095	-737.5686645507814	-285.3279113769532	498.0386657714845	-862.7416992187502	-281.3940124511719	356.3189086914063	-802.9006958007815	-335.8525390625001	282.8677673339844	-742.5161132812501	-301.6951293945313	274.5216979980469	-775.6951904296877	-315.5708923339844	231.0457611083985	-811.2759399414065	-391.751678466797	117.4143600463867	-772.6118164062502	-365.2167358398438	139.3569793701172	-853.4852294921877	-450.0247497558595	98.52703094482425	-825.9422607421877	-245.4638061523438	57.62444305419923	-837.3098144531252	-245.7945098876954	55.96993255615236	-795.0484008789065	-283.1763916015626	36.50495910644532	-742.3145141601564	nan	nan	nan	
3	0.01	-252.8225555419922	1721.94921875	-856.1326904296877	-367.1972045898438	1596.611450195313	-957.642517089844	-422.9271850585939	1481.94970703125	-894.5061035156252	-430.035125732422	1155.432006835938	-893.6543579101565	-279.0068664550782	1423.151123046875	-882.8450317382815	-306.8777160644532	1451.236450195313	-1047.41064453125	-317.5905151367188	1257.958374023438	-1173.341430664063	-278.2649230957032	1234.29345703125	-1154.992431640625	-300.9650878906251	1192.145141601563	-1192.640625	-272.2487487792969	1111.5166015625	-1190.047973632813	-346.3283386230469	1091.573486328125	-1134.7626953125	-179.6549530029297	1107.699584960938	-951.5086669921877	-135.747802734375	1059.9306640625	-990.201354980469	-109.5685272216797	1109.565551757813	-896.5459594726565	-327.2274169921876	1443.590942382813	-722.2604980468751	-349.4782104492188	1243.424194335938	-609.2055053710939	-309.5440979003907	1217.42431640625	-622.3905029296876	-341.0883178710938	1174.740234375	-592.5076293945314	-319.8078308105469	1105.855346679688	-588.1896972656251	-372.2211914062501	1067.69140625	-647.1326293945314	-162.1514282226563	1117.891479492188	-811.0424804687502	-134.7611694335938	1070.940673828125	-756.3586425781251	-85.16336059570314	1111.315551757813	-855.9824829101565	-259.3140563964844	986.6405029296877	-1015.865844726563	-256.4677734375001	998.1177368164065	-764.4287109375001	-417.3606262207032	1055.56103515625	-893.1555175781252	-423.4849853515626	1023.727722167969	-919.3052978515627	-422.952362060547	1025.83837890625	-862.471374511719	-303.7192077636719	742.0161743164064	-1086.62255859375	-273.2590637207032	664.0007934570314	-1084.7939453125	-226.8168640136719	670.0518798828126	-1067.62744140625	-299.0280761718751	610.5741577148439	-1074.639282226563	-305.7194213867188	501.9428710937501	-1065.065307617188	-265.2817993164063	487.2187805175782	-941.351013183594	-255.6402130126954	377.8704223632813	-1033.662841796875	-315.9071655273438	342.4470520019532	-1084.363525390625	-276.1488647460938	332.8502807617188	-1064.08740234375	-284.9776306152344	252.8830108642579	-1036.843139648438	-367.0190734863282	119.3856887817383	-1057.036865234375	-339.9634704589844	128.4188995361328	-976.7114868164065	-425.7897338867189	89.07781219482423	-1019.798645019531	-220.7691040039063	51.42109298706056	-985.5354614257815	-215.5585479736329	54.72630691528322	-1034.187866210938	-253.1776885986329	41.65762329101563	-1088.244750976563	-315.8869934082032	794.162048339844	-696.2410278320314	-277.4516296386719	741.3905029296876	-700.1887207031251	-246.7474975585938	747.6942138671876	-711.8088989257814	-304.7351074218751	660.1254882812501	-708.3055419921876	-320.2777404785157	506.2359313964845	-737.5455322265626	-285.2716979980469	498.0228881835939	-862.7556762695315	-281.4110717773438	356.2882080078126	-802.9185180664065	-335.8571166992188	282.8379516601563	-742.5432128906251	-301.6904907226563	274.4938964843751	-775.683288574219	-315.5625305175782	231.0043640136719	-811.3243408203127	-391.7200927734376	117.3818511962891	-772.6054687500002	-364.0087280273438	139.0117950439453	-853.2463378906252	-450.0268859863282	98.52373504638675	-825.9671020507815	-245.4512939453126	57.60549163818361	-837.3301391601565	-245.7904510498047	55.98277664184572	-795.0606079101565	-283.1763305664063	36.5050277709961	-742.3145141601564	nan	nan	nan	
4	0.015	-252.7216339111329	1721.973754882813	-856.0654296875002	-367.1313171386719	1596.569213867188	-957.6413574218752	-422.8852539062501	1481.941650390625	-894.5618286132815	-429.9873046875001	1155.409057617188	-893.6499023437502	-278.9971923828126	1423.09521484375	-882.8410644531252	-306.8742370605469	1451.20849609375	-1047.408447265625	-317.5088806152344	1257.92626953125	-1173.388061523438	-277.4837036132813	1234.170043945313	-1154.46875	-300.9495544433594	1192.129760742188	-1192.722290039063	-272.2666931152344	1111.47607421875	-1190.116333007813	-346.4018249511719	1091.58740234375	-1134.884643554688	-179.6794738769532	1107.595336914063	-951.5713500976565	-135.8346405029297	1059.881591796875	-990.1677856445315	-109.5999984741211	1109.502563476563	-896.5771484375002	-327.1860046386719	1443.58349609375	-722.3281250000001	-349.5142517089844	1243.421508789063	-609.2199096679689	-309.5673522949219	1217.439453125	-622.4155883789064	-341.1169433593751	1174.738525390625	-592.5245361328126	-319.9010009765626	1105.861328125	-588.2386474609376	-372.2895812988282	1067.712280273438	-647.2265625000001	-162.1886596679688	1117.810913085938	-811.0692138671877	-134.8135375976563	1070.8779296875	-756.4048461914064	-85.26837158203126	1111.196411132813	-855.9910888671877	-260.0643615722657	986.9213867187502	-1016.356018066406	-256.4668579101563	998.1387329101565	-764.4155273437501	-417.3793334960939	1055.5830078125	-893.1289672851565	-423.4381103515626	1023.740112304688	-919.2930297851565	-422.8867492675782	1025.841430664063	-862.4780273437502	-303.7042541503907	741.9969482421876	-1086.618286132813	-273.2759399414063	663.9977416992189	-1084.828857421875	-226.765609741211	670.0372314453126	-1067.621337890625	-299.0208129882813	610.5947875976564	-1074.658325195313	-305.7249145507813	501.9634094238282	-1065.05712890625	-265.2872314453126	487.1995544433595	-941.342468261719	-255.6375274658204	377.8596496582032	-1033.657836914063	-315.9351806640626	342.5396728515626	-1084.32861328125	-276.1473693847657	332.8472900390626	-1064.080322265625	-284.0476989746094	252.7669067382813	-1036.083862304688	-367.0830078125001	119.3920059204102	-1057.019653320313	-339.9674072265626	128.4026947021485	-976.7207031250002	-425.7753906250001	89.09040832519533	-1019.827270507813	-220.7779235839844	51.42458724975587	-985.5374755859377	-215.5359954833985	54.73532104492189	-1034.178955078125	-253.1708221435547	41.70247650146485	-1088.255493164063	-315.8695983886719	794.1546630859377	-696.1691894531251	-277.4220581054688	741.3776245117189	-700.1464233398439	-246.6964721679688	747.7293090820314	-711.7450561523439	-304.7174072265626	660.1183471679689	-708.3109741210939	-320.2323608398438	506.2357177734376	-737.4934692382814	-285.2903137207032	498.0223693847657	-862.7260742187502	-281.3841857910157	356.2863464355469	-802.893493652344	-335.8086853027344	282.8503723144532	-742.5062255859376	-301.6828918457032	274.5070800781251	-775.6796875000002	-315.5663757324219	230.9862060546876	-811.3052978515627	-391.7556762695314	117.3989639282227	-772.6265258789065	-363.9033203125001	138.9671783447266	-853.1953735351565	-450.0159301757814	98.54211425781253	-825.9465942382815	-245.4512939453126	57.60545349121095	-837.3301391601565	-245.7966613769532	55.98169708251955	-795.0310058593752	-283.2031555175782	36.46290588378907	-742.3152465820314	nan	nan	nan	
